{"title":"Emniem - Survival (Explicit)(720p)","uid":9024205,"size":73360181,"categoryP":"video","categoryS":"music_videos","magnet":"?xt=urn:btih:8606258569cc07b68f092b0f5c5c012114106c4a&amp;dn=Emniem+-+Survival+%28Explicit%29%28720p%29&amp;tr=udp%3A%2F%2Ftracker.openbittorrent.com%3A80&amp;tr=udp%3A%2F%2Fopen.demonii.com%3A1337&amp;tr=udp%3A%2F%2Ftracker.coppersurfer.tk%3A6969&amp;tr=udp%3A%2F%2Fexodus.desync.com%3A6969","seeders":0,"leechers":1,"uploader":null,"files":8,"time":1381333797,"description":"General\nComplete name : Emniem - Survival (Explicit)(720p)\nFormat : MPEG-4\nFormat profile : Base Media / Version 2\nCodec ID : mp42\nFile size : 69.3 MiB\nDuration : 4mn 31s\nOverall bit rate mode : Variable\nOverall bit rate : 2 142 Kbps\n----------------------------------------------------------\nVideo\nID : 1\nFormat : AVC\nFormat/Info : Advanced Video Codec\nFormat profile : &lt;a class=&quot;__cf_email__&quot; href=&quot;/cdn-cgi/l/email-protection&quot; data-cfemail=&quot;7d35141a153d314e534c&quot;&gt;[email&amp;#160;protected]&lt;/a&gt;&lt;script cf-hash='f9e31' type=&quot;text/javascript&quot;&gt;\n/* &lt;![CDATA[ */!function(){try{var t=&quot;currentScript&quot;in document?document.currentScript:function(){for(var t=document.getElementsByTagName(&quot;script&quot;),e=t.length;e--;)if(t[e].getAttribute(&quot;cf-hash&quot;))return t[e]}();if(t&amp;&amp;t.previousSibling){var e,r,n,i,c=t.previousSibling,a=c.getAttribute(&quot;data-cfemail&quot;);if(a){for(e=&quot;&quot;,r=parseInt(a.substr(0,2),16),n=2;a.length-n;n+=2)i=parseInt(a.substr(n,2),16)^r,e+=String.fromCharCode(i);e=document.createTextNode(e),c.parentNode.replaceChild(e,c)}}}catch(u){}}();/* ]]&gt; */&lt;/script&gt;\nFormat settings, CABAC : Yes\nFormat settings, ReFrames : 1 frame\nCodec ID : avc1\nCodec ID/Info : Advanced Video Coding\nDuration : 4mn 31s\nBit rate : 1 948 Kbps\nMaximum bit rate : 6 165 Kbps\nWidth : 1 280 pixels\nHeight : 720 pixels\nDisplay aspect ratio : 16:9\nFrame rate mode : Constant\nFrame rate : 23.976 fps\nColor space : YUV\nChroma subsampling : 4:2:0\nBit depth : 8 bits\nScan type : Progressive\nBits/(Pixel*Frame) : 0.088\nStream size : 63.1 MiB (91%)\n----------------------------------------------------------\nAudio\nID : 2\nFormat : AAC\nFormat/Info : Advanced Audio Codec\nFormat profile : LC\nCodec ID : 40\nDuration : 4mn 31s\nBit rate mode : Variable\nBit rate : 192 Kbps\nMaximum bit rate : 202 Kbps\nChannel count : 2 channels\nChannel positions : Front: L R\nSampling rate : 44.1 KHz\nCompression mode : Lossy\nStream size : 6.22 MiB (9%)\n----------------------------------------------------------\nEncoded by Eisa","torrent":{"xt":"urn:btih:8606258569cc07b68f092b0f5c5c012114106c4a","amp;dn":"Emniem+-+Survival+%28Explicit%29%28720p%29","amp;tr":["udp%3A%2F%2Ftracker.openbittorrent.com%3A80","udp%3A%2F%2Fopen.demonii.com%3A1337","udp%3A%2F%2Ftracker.coppersurfer.tk%3A6969","udp%3A%2F%2Fexodus.desync.com%3A6969"],"infoHash":"8606258569cc07b68f092b0f5c5c012114106c4a","infoHashBuffer":{"type":"Buffer","data":[134,6,37,133,105,204,7,182,143,9,43,15,92,92,1,33,20,16,108,74]},"announce":[],"urlList":[]}}